<svg xmlns="http://www.w3.org/2000/svg" viewBox="0 0 512 512" width="512" height="512">
  <defs>
    <linearGradient id="bg" x1="0%" y1="0%" x2="100%" y2="100%">
      <stop offset="0%" stop-color="#06b6d4"/>
      <stop offset="100%" stop-color="#0891b2"/>
    </linearGradient>
    <linearGradient id="shine" x1="0%" y1="0%" x2="100%" y2="100%">
      <stop offset="0%" stop-color="rgba(255,255,255,0.25)"/>
      <stop offset="100%" stop-color="rgba(255,255,255,0)"/>
    </linearGradient>
  </defs>
  <rect x="16" y="16" width="480" height="480" rx="112" ry="112" fill="url(#bg)"/>
  <rect x="16" y="16" width="480" height="480" rx="112" ry="112" fill="url(#shine)"/>
  <!-- Crab claw -->
  <g transform="translate(256,270)" fill="white" opacity="0.95">
    <!-- Left pincer -->
    <path d="M-30,40 Q-120,-20 -100,-100 Q-90,-140 -50,-130 Q-20,-122 -20,-90 Q-20,-50 -30,40Z"/>
    <!-- Right pincer -->
    <path d="M30,40 Q120,-20 100,-100 Q90,-140 50,-130 Q20,-122 20,-90 Q20,-50 30,40Z"/>
    <!-- Body base -->
    <ellipse cx="0" cy="60" rx="65" ry="40"/>
    <!-- Left small leg -->
    <rect x="-80" y="50" width="30" height="8" rx="4" transform="rotate(-20,-65,54)"/>
    <rect x="-85" y="72" width="28" height="8" rx="4" transform="rotate(5,-71,76)"/>
    <!-- Right small leg -->
    <rect x="50" y="50" width="30" height="8" rx="4" transform="rotate(20,65,54)"/>
    <rect x="57" y="72" width="28" height="8" rx="4" transform="rotate(-5,71,76)"/>
  </g>
  <circle cx="370" cy="140" r="18" fill="white" opacity="0.7"/>
  <circle cx="370" cy="140" r="9" fill="white" opacity="0.9"/>
</svg>
