<svg xmlns="http://www.w3.org/2000/svg" viewBox="0 0 640 160" width="640" height="160">
  <defs>
    <linearGradient id="icon-bg" x1="0%" y1="0%" x2="100%" y2="100%">
      <stop offset="0%" stop-color="#06b6d4"/>
      <stop offset="100%" stop-color="#0891b2"/>
    </linearGradient>
    <linearGradient id="icon-shine" x1="0%" y1="0%" x2="100%" y2="100%">
      <stop offset="0%" stop-color="rgba(255,255,255,0.25)"/>
      <stop offset="100%" stop-color="rgba(255,255,255,0)"/>
    </linearGradient>
  </defs>
  <rect x="8" y="8" width="144" height="144" rx="34" ry="34" fill="url(#icon-bg)"/>
  <rect x="8" y="8" width="144" height="144" rx="34" ry="34" fill="url(#icon-shine)"/>
  <!-- Crab claw (scaled down) -->
  <g transform="translate(80,85) scale(0.3)" fill="white" opacity="0.95">
    <path d="M-30,40 Q-120,-20 -100,-100 Q-90,-140 -50,-130 Q-20,-122 -20,-90 Q-20,-50 -30,40Z"/>
    <path d="M30,40 Q120,-20 100,-100 Q90,-140 50,-130 Q20,-122 20,-90 Q20,-50 30,40Z"/>
    <ellipse cx="0" cy="60" rx="65" ry="40"/>
    <rect x="-80" y="50" width="30" height="8" rx="4" transform="rotate(-20,-65,54)"/>
    <rect x="-85" y="72" width="28" height="8" rx="4" transform="rotate(5,-71,76)"/>
    <rect x="50" y="50" width="30" height="8" rx="4" transform="rotate(20,65,54)"/>
    <rect x="57" y="72" width="28" height="8" rx="4" transform="rotate(-5,71,76)"/>
  </g>
  <circle cx="111" cy="42" r="5.4" fill="white" opacity="0.7"/>
  <circle cx="111" cy="42" r="2.7" fill="white" opacity="0.9"/>
  <text x="176" y="112" font-family="Arial, Helvetica, sans-serif" font-weight="700" font-size="64" fill="#06b6d4">Inter</text>
  <text x="318" y="112" font-family="Arial, Helvetica, sans-serif" font-weight="700" font-size="64" fill="#0891b2">Claw</text>
</svg>
